<svg xmlns="http://www.w3.org/2000/svg" viewBox="0 0 1200 675" width="1200" height="675"><defs><linearGradient id="bg29" x1="0" y1="0" x2="0" y2="1"><stop offset="0" stop-color="#e8eef8"/><stop offset="1" stop-color="#ffffff"/></linearGradient></defs><rect width="1200" height="675" fill="url(#bg29)"/><circle cx="983.9999999999999" cy="121.5" r="283.5" fill="#ffb703" opacity=".10"/><circle cx="120.0" cy="641.25" r="236.24999999999997" fill="#224377" opacity=".06"/><rect x="0" y="560" width="1200" height="115" fill="#cbd5e1"/><rect x="30" y="612" width="70" height="8" rx="4" fill="#fff" opacity=".8"/><rect x="160" y="612" width="70" height="8" rx="4" fill="#fff" opacity=".8"/><rect x="290" y="612" width="70" height="8" rx="4" fill="#fff" opacity=".8"/><rect x="420" y="612" width="70" height="8" rx="4" fill="#fff" opacity=".8"/><rect x="550" y="612" width="70" height="8" rx="4" fill="#fff" opacity=".8"/><rect x="680" y="612" width="70" height="8" rx="4" fill="#fff" opacity=".8"/><rect x="810" y="612" width="70" height="8" rx="4" fill="#fff" opacity=".8"/><rect x="940" y="612" width="70" height="8" rx="4" fill="#fff" opacity=".8"/><rect x="1070" y="612" width="70" height="8" rx="4" fill="#fff" opacity=".8"/><g transform="translate(20 600) scale(1.2)"><ellipse cx="230" cy="4" rx="250" ry="12" fill="#000" opacity=".18"/><path d="M10 -30 L10 -190 Q10 -204 26 -204 L330 -204 Q350 -204 362 -186 L420 -110 L446 -100 Q458 -96 458 -80 L458 -30 Z" fill="#ffffff" stroke="#cbd5e1" stroke-width="2"/><path d="M338 -192 L404 -112 L338 -112 Z" fill="#224377" opacity=".85"/><rect x="10" y="-110" width="448" height="34" fill="#0f2244"/><rect x="10" y="-76" width="448" height="8" fill="#ffb703"/><text x="34" y="-150" fill="#0f2244" font-size="30" font-weight="800" font-family="'Plus Jakarta Sans',Arial,Helvetica,sans-serif">AKÜ <tspan fill="#f59e0b">NOKTASI</tspan></text><text x="36" y="-122" fill="#64748b" font-size="15" font-weight="700" letter-spacing="3" font-family="'Plus Jakarta Sans',Arial,Helvetica,sans-serif">MOBİL AKÜ SERVİSİ</text><text x="34" y="-86" fill="#fff" font-size="18" font-weight="800" font-family="'Plus Jakarta Sans',Arial,Helvetica,sans-serif">7/24  ·  0542 134 02 39</text><rect x="440" y="-96" width="18" height="12" rx="3" fill="#ffb703"/><rect x="250" y="-212" width="70" height="10" rx="4" fill="#ffb703"/><circle cx="100" cy="-26" r="34" fill="#111827"/><circle cx="100" cy="-26" r="15" fill="#9ca3af"/><circle cx="370" cy="-26" r="34" fill="#111827"/><circle cx="370" cy="-26" r="15" fill="#9ca3af"/></g><g transform="translate(610 600) scale(1.3)"><ellipse cx="210" cy="4" rx="230" ry="12" fill="#000" opacity=".18"/><path d="M20 -30 Q18 -78 60 -86 L120 -92 Q150 -140 205 -146 L270 -146 Q312 -144 340 -96 L392 -88 Q424 -82 426 -50 L428 -30 Z" fill="#e2e8f0"/><path d="M300 -96 L392 -170 L400 -160 L318 -92 Z" fill="#cfd5dc" stroke="#94a3b8" stroke-width="2"/><path d="M136 -94 Q160 -132 205 -136 L232 -136 L232 -94 Z" fill="#224377" opacity=".85"/><path d="M244 -136 L270 -136 Q300 -134 322 -96 L244 -94 Z" fill="#224377" opacity=".85"/><rect x="20" y="-46" width="408" height="10" fill="#c0c5cc"/><rect x="398" y="-74" width="26" height="12" rx="4" fill="#ffb703"/><rect x="22" y="-72" width="16" height="12" rx="3" fill="#ef4444"/><circle cx="100" cy="-26" r="34" fill="#111827"/><circle cx="100" cy="-26" r="16" fill="#9ca3af"/><circle cx="340" cy="-26" r="34" fill="#111827"/><circle cx="340" cy="-26" r="16" fill="#9ca3af"/></g><path d="M640 300 C 760 250, 900 300, 1080 390" fill="none" stroke="#224377" stroke-width="4" stroke-dasharray="10 10"/><path d="M1080 390 l-26 -2 l14 -20 z" fill="#224377"/><defs><linearGradient id="g30" x1="0" y1="0" x2="1" y2="0"><stop offset="0" stop-color="#4b5769"/><stop offset=".55" stop-color="#334155"/><stop offset="1" stop-color="#2b3748"/></linearGradient></defs><ellipse cx="559.84" cy="344" rx="143.84" ry="9.8" fill="#000" opacity=".22"/><path d="M640 200 L679.68 173.12 L679.68 313.12 L640 340 Z" fill="#1f2834"/><rect x="440" y="200" width="200" height="140" rx="2.4" fill="url(#g30)"/><path d="M440 200 L640 200 L679.68 173.12 L479.68 173.12 Z" fill="#66707f"/><rect x="440" y="200" width="200" height="9.8" fill="#4b5769"/><path d="M640 200 L679.68 173.12 L679.68 182.92000000000002 L640 209.8 Z" fill="#343c49"/><ellipse cx="522.5066666666667" cy="186.56" rx="4.3999999999999995" ry="1.7999999999999998" fill="#26303f"/><ellipse cx="541.1733333333333" cy="186.56" rx="4.3999999999999995" ry="1.7999999999999998" fill="#26303f"/><ellipse cx="559.84" cy="186.56" rx="4.3999999999999995" ry="1.7999999999999998" fill="#26303f"/><ellipse cx="578.5066666666667" cy="186.56" rx="4.3999999999999995" ry="1.7999999999999998" fill="#26303f"/><ellipse cx="597.1733333333333" cy="186.56" rx="4.3999999999999995" ry="1.7999999999999998" fill="#26303f"/><path d="M519.1424 195.1616 q28.000000000000004 -24.192 56.00000000000001 0" fill="none" stroke="#1c232e" stroke-width="3.5999999999999996" stroke-linecap="round"/><ellipse cx="487.824" cy="186.56" rx="13.5" ry="4.95" fill="#000" opacity=".25"/><rect x="478.824" y="178.46" width="18.0" height="8.1" fill="#929599"/><ellipse cx="487.824" cy="186.56" rx="9.0" ry="3.6" fill="#929599"/><ellipse cx="487.824" cy="178.46" rx="9.0" ry="3.6" fill="#d1d5db"/><ellipse cx="485.124" cy="177.74" rx="3.15" ry="1.08" fill="#fff" opacity=".5"/><ellipse cx="627.856" cy="186.56" rx="13.5" ry="4.95" fill="#000" opacity=".25"/><rect x="618.856" y="178.46" width="18.0" height="8.1" fill="#929599"/><ellipse cx="627.856" cy="186.56" rx="9.0" ry="3.6" fill="#929599"/><ellipse cx="627.856" cy="178.46" rx="9.0" ry="3.6" fill="#d1d5db"/><ellipse cx="625.156" cy="177.74" rx="3.15" ry="1.08" fill="#fff" opacity=".5"/><text x="460.0" y="227.3" fill="#fff" opacity=".85" font-size="14.000000000000002" font-weight="800" font-family="'Plus Jakarta Sans',Arial,Helvetica,sans-serif">−</text><text x="608.0" y="227.3" fill="#ffb703" font-size="14.000000000000002" font-weight="800" font-family="'Plus Jakarta Sans',Arial,Helvetica,sans-serif">+</text><rect x="456.0" y="242.0" width="168.0" height="78.4" rx="4.0" fill="#60a5fa"/><rect x="456.0" y="298.448" width="168.0" height="21.952000000000005" fill="#0a1730" opacity=".9"/><path transform="translate(469.44 251.408) scale(1.6333333333333335)" d="M13 1 3 14h7l-1.5 9L19 9.5h-7.2L13 1z" fill="#0a1730"/><text x="509.76" y="278.848" fill="#0a1730" font-size="25.088" font-weight="800" letter-spacing="-.5" font-family="'Plus Jakarta Sans',Arial,Helvetica,sans-serif">AGM</text><text x="511.44" y="292.176" fill="#0a1730" opacity=".75" font-size="7.840000000000001" font-weight="700" letter-spacing="1.5" font-family="'Plus Jakarta Sans',Arial,Helvetica,sans-serif">AKÜ NOKTASI</text><text x="540.0" y="313.344" text-anchor="middle" fill="#60a5fa" font-size="9.408" font-weight="800" font-family="'Plus Jakarta Sans',Arial,Helvetica,sans-serif">12V  ·  70Ah  ·  760A EN</text><rect x="444.0" y="213.8" width="7.000000000000001" height="120.19999999999999" rx="3" fill="#fff" opacity=".08"/><circle cx="140" cy="140" r="64" fill="#ffb703"/><path transform="translate(114 98) scale(2.1666666666666665)" d="M13 1 3 14h7l-1.5 9L19 9.5h-7.2L13 1z" fill="#0a1730" opacity="1"/><text x="140" y="182" text-anchor="middle" fill="#0a1730" font-size="22" font-weight="800" font-family="'Plus Jakarta Sans',Arial,Helvetica,sans-serif">7/24</text></svg>
