<svg xmlns="http://www.w3.org/2000/svg" viewBox="0 0 1200 675" width="1200" height="675"><defs><linearGradient id="bg43" x1="0" y1="0" x2="0" y2="1"><stop offset="0" stop-color="#eef3fb"/><stop offset="1" stop-color="#ffffff"/></linearGradient></defs><rect width="1200" height="675" fill="url(#bg43)"/><circle cx="983.9999999999999" cy="121.5" r="283.5" fill="#ffb703" opacity=".10"/><circle cx="120.0" cy="641.25" r="236.24999999999997" fill="#224377" opacity=".06"/><rect x="0" y="562" width="1200" height="3" fill="#cbd5e1" opacity=".6"/><defs><linearGradient id="g42" x1="0" y1="0" x2="1" y2="0"><stop offset="0" stop-color="#4b5769"/><stop offset=".55" stop-color="#334155"/><stop offset="1" stop-color="#2b3748"/></linearGradient></defs><ellipse cx="409.68" cy="564" rx="287.68" ry="16.8" fill="#000" opacity=".22"/><path d="M570 320 L649.36 266.24 L649.36 506.24 L570 560 Z" fill="#1f2834"/><rect x="170" y="320" width="400" height="240" rx="4.8" fill="url(#g42)"/><path d="M170 320 L570 320 L649.36 266.24 L249.36 266.24 Z" fill="#66707f"/><rect x="170" y="320" width="400" height="16.8" fill="#4b5769"/><path d="M570 320 L649.36 266.24 L649.36 283.04 L570 336.8 Z" fill="#343c49"/><ellipse cx="335.0133333333333" cy="293.12" rx="8.799999999999999" ry="3.5999999999999996" fill="#26303f"/><ellipse cx="372.3466666666667" cy="293.12" rx="8.799999999999999" ry="3.5999999999999996" fill="#26303f"/><ellipse cx="409.68" cy="293.12" rx="8.799999999999999" ry="3.5999999999999996" fill="#26303f"/><ellipse cx="447.0133333333333" cy="293.12" rx="8.799999999999999" ry="3.5999999999999996" fill="#26303f"/><ellipse cx="484.3466666666667" cy="293.12" rx="8.799999999999999" ry="3.5999999999999996" fill="#26303f"/><path d="M328.2848 310.3232 q56.00000000000001 -48.384 112.00000000000001 0" fill="none" stroke="#1c232e" stroke-width="7.199999999999999" stroke-linecap="round"/><ellipse cx="265.648" cy="293.12" rx="27.0" ry="9.9" fill="#000" opacity=".25"/><rect x="247.64800000000002" y="276.92" width="36.0" height="16.2" fill="#929599"/><ellipse cx="265.648" cy="293.12" rx="18.0" ry="7.2" fill="#929599"/><ellipse cx="265.648" cy="276.92" rx="18.0" ry="7.2" fill="#d1d5db"/><ellipse cx="260.24800000000005" cy="275.48" rx="6.3" ry="2.16" fill="#fff" opacity=".5"/><ellipse cx="545.712" cy="293.12" rx="27.0" ry="9.9" fill="#000" opacity=".25"/><rect x="527.712" y="276.92" width="36.0" height="16.2" fill="#929599"/><ellipse cx="545.712" cy="293.12" rx="18.0" ry="7.2" fill="#929599"/><ellipse cx="545.712" cy="276.92" rx="18.0" ry="7.2" fill="#d1d5db"/><ellipse cx="540.312" cy="275.48" rx="6.3" ry="2.16" fill="#fff" opacity=".5"/><text x="210.0" y="371.8" fill="#fff" opacity=".85" font-size="28.000000000000004" font-weight="800" font-family="'Plus Jakarta Sans',Arial,Helvetica,sans-serif">−</text><text x="506.0" y="371.8" fill="#ffb703" font-size="28.000000000000004" font-weight="800" font-family="'Plus Jakarta Sans',Arial,Helvetica,sans-serif">+</text><rect x="202.0" y="392.0" width="336.0" height="134.4" rx="8.0" fill="#60a5fa"/><rect x="202.0" y="488.76800000000003" width="336.0" height="37.632000000000005" fill="#0a1730" opacity=".9"/><path transform="translate(228.88 408.128) scale(2.8000000000000003)" d="M13 1 3 14h7l-1.5 9L19 9.5h-7.2L13 1z" fill="#0a1730"/><text x="309.52" y="455.168" fill="#0a1730" font-size="43.008" font-weight="800" letter-spacing="-.5" font-family="'Plus Jakarta Sans',Arial,Helvetica,sans-serif">AGM</text><text x="312.88" y="478.016" fill="#0a1730" opacity=".75" font-size="13.440000000000001" font-weight="700" letter-spacing="1.5" font-family="'Plus Jakarta Sans',Arial,Helvetica,sans-serif">AKÜ NOKTASI</text><text x="370.0" y="514.304" text-anchor="middle" fill="#60a5fa" font-size="16.128" font-weight="800" font-family="'Plus Jakarta Sans',Arial,Helvetica,sans-serif">12V  ·  80Ah  ·  800A EN</text><rect x="178.0" y="340.8" width="14.000000000000002" height="213.2" rx="3" fill="#fff" opacity=".08"/><g transform="translate(760 150) scale(11)"><path d="M12 3l8 3v6c0 5-3.5 8-8 9-4.5-1-8-4-8-9V6l8-3z" fill="#22c55e"/><path d="M8.5 12l2.5 2.5 4.5-5" fill="none" stroke="#fff" stroke-width="2" stroke-linecap="round" stroke-linejoin="round"/></g><text x="892" y="470" text-anchor="middle" fill="#0f2244" font-size="44" font-weight="800" font-family="'Plus Jakarta Sans',Arial,Helvetica,sans-serif">3–5 YIL</text><text x="892" y="508" text-anchor="middle" fill="#64748b" font-size="20" font-weight="700" letter-spacing="2" font-family="'Plus Jakarta Sans',Arial,Helvetica,sans-serif">DOĞRU KULLANIMLA</text></svg>
