<svg xmlns="http://www.w3.org/2000/svg" viewBox="0 0 1200 630" width="1200" height="630"><defs><linearGradient id="bg54" x1="0" y1="0" x2="1" y2="1"><stop offset="0" stop-color="#0f2244"/><stop offset="1" stop-color="#061024"/></linearGradient><radialGradient id="rg55" cx=".5" cy=".5" r=".5"><stop offset="0" stop-color="#ffb703" stop-opacity=".45"/><stop offset="1" stop-color="#ffb703" stop-opacity="0"/></radialGradient></defs><rect width="1200" height="630" fill="url(#bg54)"/><path d="M0 0V630" stroke="#fff" stroke-opacity=".04"/><path d="M48 0V630" stroke="#fff" stroke-opacity=".04"/><path d="M96 0V630" stroke="#fff" stroke-opacity=".04"/><path d="M144 0V630" stroke="#fff" stroke-opacity=".04"/><path d="M192 0V630" stroke="#fff" stroke-opacity=".04"/><path d="M240 0V630" stroke="#fff" stroke-opacity=".04"/><path d="M288 0V630" stroke="#fff" stroke-opacity=".04"/><path d="M336 0V630" stroke="#fff" stroke-opacity=".04"/><path d="M384 0V630" stroke="#fff" stroke-opacity=".04"/><path d="M432 0V630" stroke="#fff" stroke-opacity=".04"/><path d="M480 0V630" stroke="#fff" stroke-opacity=".04"/><path d="M528 0V630" stroke="#fff" stroke-opacity=".04"/><path d="M576 0V630" stroke="#fff" stroke-opacity=".04"/><path d="M624 0V630" stroke="#fff" stroke-opacity=".04"/><path d="M672 0V630" stroke="#fff" stroke-opacity=".04"/><path d="M720 0V630" stroke="#fff" stroke-opacity=".04"/><path d="M768 0V630" stroke="#fff" stroke-opacity=".04"/><path d="M816 0V630" stroke="#fff" stroke-opacity=".04"/><path d="M864 0V630" stroke="#fff" stroke-opacity=".04"/><path d="M912 0V630" stroke="#fff" stroke-opacity=".04"/><path d="M960 0V630" stroke="#fff" stroke-opacity=".04"/><path d="M1008 0V630" stroke="#fff" stroke-opacity=".04"/><path d="M1056 0V630" stroke="#fff" stroke-opacity=".04"/><path d="M1104 0V630" stroke="#fff" stroke-opacity=".04"/><path d="M1152 0V630" stroke="#fff" stroke-opacity=".04"/><path d="M0 0H1200" stroke="#fff" stroke-opacity=".04"/><path d="M0 48H1200" stroke="#fff" stroke-opacity=".04"/><path d="M0 96H1200" stroke="#fff" stroke-opacity=".04"/><path d="M0 144H1200" stroke="#fff" stroke-opacity=".04"/><path d="M0 192H1200" stroke="#fff" stroke-opacity=".04"/><path d="M0 240H1200" stroke="#fff" stroke-opacity=".04"/><path d="M0 288H1200" stroke="#fff" stroke-opacity=".04"/><path d="M0 336H1200" stroke="#fff" stroke-opacity=".04"/><path d="M0 384H1200" stroke="#fff" stroke-opacity=".04"/><path d="M0 432H1200" stroke="#fff" stroke-opacity=".04"/><path d="M0 480H1200" stroke="#fff" stroke-opacity=".04"/><path d="M0 528H1200" stroke="#fff" stroke-opacity=".04"/><path d="M0 576H1200" stroke="#fff" stroke-opacity=".04"/><path d="M0 624H1200" stroke="#fff" stroke-opacity=".04"/><circle cx="660.0" cy="315.0" r="302.4" fill="url(#rg55)"/><defs><linearGradient id="g56" x1="0" y1="0" x2="1" y2="0"><stop offset="0" stop-color="#4b5769"/><stop offset=".55" stop-color="#334155"/><stop offset="1" stop-color="#2b3748"/></linearGradient></defs><ellipse cx="915.712" cy="524" rx="258.912" ry="15.400000000000002" fill="#000" opacity=".22"/><path d="M1060 300 L1131.424 251.61599999999999 L1131.424 471.616 L1060 520 Z" fill="#1f2834"/><rect x="700" y="300" width="360" height="220" rx="4.32" fill="url(#g56)"/><path d="M700 300 L1060 300 L1131.424 251.61599999999999 L771.424 251.61599999999999 Z" fill="#66707f"/><rect x="700" y="300" width="360" height="15.400000000000002" fill="#4b5769"/><path d="M1060 300 L1131.424 251.61599999999999 L1131.424 267.01599999999996 L1060 315.4 Z" fill="#343c49"/><ellipse cx="848.5120000000001" cy="275.808" rx="7.92" ry="3.2399999999999998" fill="#26303f"/><ellipse cx="882.1120000000001" cy="275.808" rx="7.92" ry="3.2399999999999998" fill="#26303f"/><ellipse cx="915.712" cy="275.808" rx="7.92" ry="3.2399999999999998" fill="#26303f"/><ellipse cx="949.312" cy="275.808" rx="7.92" ry="3.2399999999999998" fill="#26303f"/><ellipse cx="982.912" cy="275.808" rx="7.92" ry="3.2399999999999998" fill="#26303f"/><path d="M842.45632 291.29088 q50.400000000000006 -43.5456 100.80000000000001 0" fill="none" stroke="#1c232e" stroke-width="6.4799999999999995" stroke-linecap="round"/><ellipse cx="786.0831999999999" cy="275.808" rx="24.299999999999997" ry="8.91" fill="#000" opacity=".25"/><rect x="769.8831999999999" y="261.228" width="32.4" height="14.58" fill="#929599"/><ellipse cx="786.0831999999999" cy="275.808" rx="16.2" ry="6.48" fill="#929599"/><ellipse cx="786.0831999999999" cy="261.228" rx="16.2" ry="6.48" fill="#d1d5db"/><ellipse cx="781.2231999999999" cy="259.932" rx="5.669999999999999" ry="1.944" fill="#fff" opacity=".5"/><ellipse cx="1038.1408" cy="275.808" rx="24.299999999999997" ry="8.91" fill="#000" opacity=".25"/><rect x="1021.9407999999999" y="261.228" width="32.4" height="14.58" fill="#929599"/><ellipse cx="1038.1408" cy="275.808" rx="16.2" ry="6.48" fill="#929599"/><ellipse cx="1038.1408" cy="261.228" rx="16.2" ry="6.48" fill="#d1d5db"/><ellipse cx="1033.2808" cy="259.932" rx="5.669999999999999" ry="1.944" fill="#fff" opacity=".5"/><text x="736.0" y="346.9" fill="#fff" opacity=".85" font-size="25.200000000000003" font-weight="800" font-family="'Plus Jakarta Sans',Arial,Helvetica,sans-serif">−</text><text x="1002.4" y="346.9" fill="#ffb703" font-size="25.200000000000003" font-weight="800" font-family="'Plus Jakarta Sans',Arial,Helvetica,sans-serif">+</text><rect x="728.8" y="366.0" width="302.4" height="123.20000000000002" rx="7.2" fill="#60a5fa"/><rect x="728.8" y="454.704" width="302.4" height="34.49600000000001" fill="#0a1730" opacity=".9"/><path transform="translate(752.992 380.784) scale(2.566666666666667)" d="M13 1 3 14h7l-1.5 9L19 9.5h-7.2L13 1z" fill="#0a1730"/><text x="825.568" y="423.904" fill="#0a1730" font-size="39.42400000000001" font-weight="800" letter-spacing="-.5" font-family="'Plus Jakarta Sans',Arial,Helvetica,sans-serif">AGM</text><text x="828.592" y="444.848" fill="#0a1730" opacity=".75" font-size="12.320000000000002" font-weight="700" letter-spacing="1.5" font-family="'Plus Jakarta Sans',Arial,Helvetica,sans-serif">AKÜ NOKTASI</text><text x="880.0" y="478.112" text-anchor="middle" fill="#60a5fa" font-size="14.784" font-weight="800" font-family="'Plus Jakarta Sans',Arial,Helvetica,sans-serif">12V  ·  80Ah  ·  800A EN</text><rect x="707.2" y="319.4" width="12.600000000000001" height="194.6" rx="3" fill="#fff" opacity=".08"/><text x="80" y="230" fill="#fff" font-size="72" font-weight="800" font-family="'Plus Jakarta Sans',Arial,Helvetica,sans-serif">AKÜ <tspan fill="#ffb703">NOKTASI</tspan></text><text x="84" y="290" fill="#9fb0cc" font-size="28" font-weight="700" letter-spacing="6" font-family="'Plus Jakarta Sans',Arial,Helvetica,sans-serif">BALIKESİR · 7/24</text><text x="84" y="380" fill="#e2e8f3" font-size="30" font-weight="600" font-family="'Plus Jakarta Sans',Arial,Helvetica,sans-serif">Akü satışı · Yerinde değişim</text><text x="84" y="425" fill="#e2e8f3" font-size="30" font-weight="600" font-family="'Plus Jakarta Sans',Arial,Helvetica,sans-serif">Şarj ve takviye · Oto elektrik</text><rect x="84" y="470" width="330" height="70" rx="35" fill="#ffb703"/><text x="249" y="515" text-anchor="middle" fill="#0a1730" font-size="30" font-weight="800" font-family="'Plus Jakarta Sans',Arial,Helvetica,sans-serif">0542 134 02 39</text></svg>
